<?xml version="1.0" standalone="no"?>
<!DOCTYPE svg PUBLIC "-//W3C//DTD SVG 20010904//EN"
 "http://www.w3.org/TR/2001/REC-SVG-20010904/DTD/svg10.dtd">
<svg version="1.0" xmlns="http://www.w3.org/2000/svg"
 width="1024.000000pt" height="1024.000000pt" viewBox="0 0 1024.000000 1024.000000"
 preserveAspectRatio="xMidYMid meet">
<metadata>
Created by potrace 1.14, written by Peter Selinger 2001-2017
</metadata>
<g transform="translate(0.000000,1024.000000) scale(0.100000,-0.100000)"
fill="#000000" stroke="none">
<path d="M0 5120 l0 -5120 5120 0 5120 0 0 5120 0 5120 -5120 0 -5120 0 0
-5120z m3702 2008 l3 -933 103 -3 102 -3 0 -109 0 -110 1225 0 1225 0 0 110 0
109 107 3 107 3 -1 933 -1 932 236 0 237 0 -3 -95 -4 -95 136 0 136 0 0 -105
0 -104 56 -3 57 -3 -2 -92 -2 -93 85 0 86 0 0 -120 0 -120 120 0 120 0 1
-1582 c1 -871 2 -1967 3 -2435 l2 -853 -123 0 -123 0 0 -110 0 -110 -267 0
-268 0 3 1420 2 1420 -115 0 -115 0 0 95 0 95 -1695 0 -1695 0 0 -95 0 -95
-110 0 -110 0 0 -1420 0 -1420 -275 0 -275 0 0 110 0 110 -125 0 -125 0 0
2755 0 2755 125 0 125 0 0 95 0 95 515 0 515 0 2 -932z m2338 -83 l0 -825
-330 0 -330 0 0 825 0 825 330 0 330 0 0 -825z m490 -2480 c0 -22 4 -25 40
-25 l40 0 0 -64 0 -65 -37 -3 c-37 -3 -38 -4 -41 -45 l-3 -41 -1227 -1 c-675
-1 -1302 1 -1394 5 l-167 7 -3 36 c-3 35 -5 36 -45 39 l-43 3 0 59 0 59 43 3
c38 3 42 6 45 31 l3 27 1395 0 1394 0 0 -25z m2 -837 c3 -42 4 -43 41 -46 l37
-3 0 -60 0 -59 -40 0 c-39 0 -40 -1 -40 -35 l0 -35 -1395 0 -1395 0 0 34 c0
34 -1 35 -42 38 l-43 3 0 60 0 60 43 3 c41 3 42 4 42 38 l0 34 1383 3 c760 1
1387 3 1394 5 7 1 13 -14 15 -40z m-2 -823 c0 -34 1 -35 40 -35 l40 0 0 -60 0
-60 -40 0 -40 0 0 -40 0 -40 -1394 0 -1395 0 -3 38 c-3 36 -4 37 -45 40 l-43
3 0 59 0 59 43 3 c39 3 42 5 45 36 l3 32 1395 0 1394 0 0 -35z"/>
<path d="M2683 7240 l-3 -250 140 0 140 0 0 250 0 250 -137 0 -138 0 -2 -250z"/>
<path d="M2690 2780 l0 -230 135 0 135 0 0 230 0 230 -135 0 -135 0 0 -230z"/>
<path d="M7312 2783 l3 -228 133 -3 132 -3 0 231 0 230 -135 0 -135 0 2 -227z"/>
</g>
</svg>
