<?xml version="1.0" standalone="no"?>
<!DOCTYPE svg PUBLIC "-//W3C//DTD SVG 20010904//EN"
 "http://www.w3.org/TR/2001/REC-SVG-20010904/DTD/svg10.dtd">
<svg version="1.0" xmlns="http://www.w3.org/2000/svg"
 width="1024.000000pt" height="1024.000000pt" viewBox="0 0 1024.000000 1024.000000"
 preserveAspectRatio="xMidYMid meet">
<metadata>
Created by potrace 1.14, written by Peter Selinger 2001-2017
</metadata>
<g transform="translate(0.000000,1024.000000) scale(0.100000,-0.100000)"
fill="#000000" stroke="none">
<path d="M0 5120 l0 -5120 5120 0 5120 0 0 5120 0 5120 -5120 0 -5120 0 0
-5120z m3720 2585 l0 -145 420 0 420 0 0 -141 0 -140 150 3 c146 3 149 3 159
-19 6 -13 16 -23 23 -23 7 0 21 -14 31 -31 9 -17 25 -33 35 -36 10 -2 26 -17
35 -33 10 -16 25 -31 35 -34 9 -3 28 -22 41 -41 13 -19 29 -35 37 -35 7 0 16
-9 19 -20 6 -19 15 -20 153 -20 l147 0 -3 -145 -4 -145 146 0 146 0 0 -145 0
-145 140 0 140 0 0 145 0 145 140 0 140 0 66 68 c36 37 77 81 91 99 14 18 33
35 44 38 10 4 19 13 19 21 0 8 11 19 25 24 38 14 32 49 -19 103 -24 26 -48 47
-55 47 -6 0 -11 4 -11 10 0 14 -114 130 -128 130 -6 0 -14 9 -17 20 -6 19 -15
20 -151 20 l-144 0 0 285 0 285 140 0 140 0 0 -146 0 -147 130 5 130 5 0 -28
c0 -40 10 -59 31 -59 10 0 19 -4 19 -8 0 -5 40 -49 90 -100 71 -72 96 -91 122
-94 l33 -3 3 -292 2 -293 -40 0 c-38 0 -46 -6 -123 -86 -45 -47 -84 -90 -86
-95 -2 -6 -14 -14 -27 -19 -19 -8 -24 -17 -24 -47 l0 -38 -270 3 -270 3 0
-146 0 -145 28 0 c15 0 77 -2 137 -3 l110 -2 3 -148 3 -148 134 3 135 3 0
-146 0 -146 31 -7 c17 -3 83 -6 145 -6 l114 0 0 -295 0 -295 135 0 135 0 0
-290 0 -290 144 0 144 0 6 -132 c3 -73 5 -463 4 -867 l-3 -735 -427 0 -427 -1
-4 115 c-2 63 -3 389 -2 723 l2 608 -134 -2 -134 -1 -2 288 -2 289 -139 3
-138 3 4 144 3 145 -142 0 -143 0 0 165 c0 101 -4 165 -10 165 -16 0 -250 238
-250 255 0 10 -10 15 -34 15 -29 0 -34 4 -39 29 -4 18 -14 32 -27 36 -11 3
-20 13 -20 21 0 8 -3 14 -7 14 -13 0 -79 64 -86 83 -3 9 -13 17 -21 17 -7 0
-16 7 -20 15 -3 8 -17 20 -31 27 -14 6 -25 19 -25 30 0 17 -11 18 -155 18
l-155 0 0 150 0 150 -135 0 -135 0 0 145 0 145 -280 0 -280 0 0 145 0 145
-700 -2 -700 -3 0 578 0 577 560 0 560 0 0 -145z m3944 93 c3 -29 6 -92 6
-140 l0 -88 -140 0 -140 0 0 140 0 140 134 0 133 0 7 -52z m-274 -356 c0 -175
-11 -162 140 -162 l127 0 7 -37 c3 -21 6 -154 6 -295 l0 -258 -35 0 c-38 0
-58 -17 -172 -147 -25 -29 -52 -53 -59 -53 -10 0 -14 -13 -14 -40 l0 -40 -155
0 -155 0 0 129 c0 71 3 136 6 145 3 9 17 16 30 16 14 0 27 7 31 16 9 24 204
223 225 230 32 10 23 67 -17 108 -19 20 -36 36 -38 36 -12 0 -167 162 -167
174 0 12 -10 16 -35 16 l-35 0 0 143 0 142 155 -3 155 -3 0 -117z m280 -1471
l0 -151 -140 0 -140 0 0 149 0 148 140 2 140 2 0 -150z m-3680 -301 l0 -149
285 2 285 2 0 -137 c0 -75 3 -143 6 -152 5 -14 27 -16 140 -16 l134 0 0 -145
0 -145 140 0 140 0 0 -290 0 -290 157 0 156 0 -7 -282 c-3 -156 -3 -287 1
-293 5 -6 65 -10 143 -10 l135 0 3 -573 2 -572 -402 0 c-222 0 -420 -3 -440
-6 l-38 -7 0 577 0 576 -136 0 -135 0 3 185 c3 186 3 186 -19 192 -13 3 -23
10 -23 16 0 10 -64 77 -74 77 -8 0 -56 50 -56 59 0 4 -11 13 -25 19 -14 6 -25
18 -25 27 0 11 -10 15 -35 15 l-35 0 0 145 0 145 -275 0 -275 0 0 145 0 145
-560 0 -560 0 0 445 0 445 695 0 695 0 0 -150z m-270 -1765 l0 -146 133 2 132
3 3 -432 3 -432 -135 0 -136 0 0 -140 0 -140 -425 0 -425 0 0 141 0 141 -135
-4 -135 -3 0 438 c0 344 3 438 13 436 6 -1 67 -1 135 0 l122 1 0 138 0 137
425 2 425 3 0 -145z"/>
</g>
</svg>
